<svg width="160" height="164" viewBox="0 0 160 164" fill="none" xmlns="http://www.w3.org/2000/svg">
<rect width="158" height="164" rx="15" fill="#1D1B23"/>
<path d="M13.692 29H12.18V23.66C12.18 23.484 12.18 23.304 12.18 23.12C12.188 22.936 12.196 22.752 12.204 22.568C12.212 22.376 12.22 22.2 12.228 22.04C12.148 22.12 12.048 22.216 11.928 22.328C11.808 22.432 11.684 22.54 11.556 22.652L10.596 23.42L9.84 22.484L12.432 20.432H13.692V29ZM21.7272 24.704C21.7272 25.4 21.6752 26.02 21.5712 26.564C21.4672 27.108 21.2952 27.572 21.0552 27.956C20.8232 28.332 20.5192 28.62 20.1432 28.82C19.7752 29.02 19.3232 29.12 18.7872 29.12C18.1152 29.12 17.5632 28.944 17.1312 28.592C16.6992 28.24 16.3792 27.736 16.1712 27.08C15.9632 26.416 15.8592 25.624 15.8592 24.704C15.8592 23.784 15.9552 22.996 16.1472 22.34C16.3392 21.684 16.6472 21.18 17.0712 20.828C17.5032 20.476 18.0752 20.3 18.7872 20.3C19.4592 20.3 20.0112 20.476 20.4432 20.828C20.8752 21.172 21.1952 21.676 21.4032 22.34C21.6192 22.996 21.7272 23.784 21.7272 24.704ZM17.3832 24.716C17.3832 25.412 17.4272 25.996 17.5152 26.468C17.6032 26.932 17.7472 27.284 17.9472 27.524C18.1552 27.756 18.4352 27.872 18.7872 27.872C19.1392 27.872 19.4152 27.756 19.6152 27.524C19.8232 27.292 19.9712 26.94 20.0592 26.468C20.1552 25.996 20.2032 25.412 20.2032 24.716C20.2032 24.012 20.1552 23.428 20.0592 22.964C19.9712 22.492 19.8232 22.14 19.6152 21.908C19.4152 21.668 19.1392 21.548 18.7872 21.548C18.4352 21.548 18.1552 21.668 17.9472 21.908C17.7472 22.14 17.6032 22.488 17.5152 22.952C17.4272 23.416 17.3832 24.004 17.3832 24.716ZM28.0944 24.704C28.0944 25.4 28.0424 26.02 27.9384 26.564C27.8344 27.108 27.6624 27.572 27.4224 27.956C27.1904 28.332 26.8864 28.62 26.5104 28.82C26.1424 29.02 25.6904 29.12 25.1544 29.12C24.4824 29.12 23.9304 28.944 23.4984 28.592C23.0664 28.24 22.7464 27.736 22.5384 27.08C22.3304 26.416 22.2264 25.624 22.2264 24.704C22.2264 23.784 22.3224 22.996 22.5144 22.34C22.7064 21.684 23.0144 21.18 23.4384 20.828C23.8704 20.476 24.4424 20.3 25.1544 20.3C25.8264 20.3 26.3784 20.476 26.8104 20.828C27.2424 21.172 27.5624 21.676 27.7704 22.34C27.9864 22.996 28.0944 23.784 28.0944 24.704ZM23.7504 24.716C23.7504 25.412 23.7944 25.996 23.8824 26.468C23.9704 26.932 24.1144 27.284 24.3144 27.524C24.5224 27.756 24.8024 27.872 25.1544 27.872C25.5064 27.872 25.7824 27.756 25.9824 27.524C26.1904 27.292 26.3384 26.94 26.4264 26.468C26.5224 25.996 26.5704 25.412 26.5704 24.716C26.5704 24.012 26.5224 23.428 26.4264 22.964C26.3384 22.492 26.1904 22.14 25.9824 21.908C25.7824 21.668 25.5064 21.548 25.1544 21.548C24.8024 21.548 24.5224 21.668 24.3144 21.908C24.1144 22.14 23.9704 22.488 23.8824 22.952C23.7944 23.416 23.7504 24.004 23.7504 24.716ZM34.4616 24.704C34.4616 25.4 34.4096 26.02 34.3056 26.564C34.2016 27.108 34.0296 27.572 33.7896 27.956C33.5576 28.332 33.2536 28.62 32.8776 28.82C32.5096 29.02 32.0576 29.12 31.5216 29.12C30.8496 29.12 30.2976 28.944 29.8656 28.592C29.4336 28.24 29.1136 27.736 28.9056 27.08C28.6976 26.416 28.5936 25.624 28.5936 24.704C28.5936 23.784 28.6896 22.996 28.8816 22.34C29.0736 21.684 29.3816 21.18 29.8056 20.828C30.2376 20.476 30.8096 20.3 31.5216 20.3C32.1936 20.3 32.7456 20.476 33.1776 20.828C33.6096 21.172 33.9296 21.676 34.1376 22.34C34.3536 22.996 34.4616 23.784 34.4616 24.704ZM30.1176 24.716C30.1176 25.412 30.1616 25.996 30.2496 26.468C30.3376 26.932 30.4816 27.284 30.6816 27.524C30.8896 27.756 31.1696 27.872 31.5216 27.872C31.8736 27.872 32.1496 27.756 32.3496 27.524C32.5576 27.292 32.7056 26.94 32.7936 26.468C32.8896 25.996 32.9376 25.412 32.9376 24.716C32.9376 24.012 32.8896 23.428 32.7936 22.964C32.7056 22.492 32.5576 22.14 32.3496 21.908C32.1496 21.668 31.8736 21.548 31.5216 21.548C31.1696 21.548 30.8896 21.668 30.6816 21.908C30.4816 22.14 30.3376 22.488 30.2496 22.952C30.1616 23.416 30.1176 24.004 30.1176 24.716ZM40.8288 24.704C40.8288 25.4 40.7768 26.02 40.6728 26.564C40.5688 27.108 40.3968 27.572 40.1568 27.956C39.9248 28.332 39.6208 28.62 39.2448 28.82C38.8768 29.02 38.4248 29.12 37.8888 29.12C37.2168 29.12 36.6648 28.944 36.2327 28.592C35.8008 28.24 35.4808 27.736 35.2728 27.08C35.0648 26.416 34.9608 25.624 34.9608 24.704C34.9608 23.784 35.0568 22.996 35.2488 22.34C35.4408 21.684 35.7488 21.18 36.1728 20.828C36.6048 20.476 37.1768 20.3 37.8888 20.3C38.5608 20.3 39.1128 20.476 39.5448 20.828C39.9768 21.172 40.2968 21.676 40.5048 22.34C40.7208 22.996 40.8288 23.784 40.8288 24.704ZM36.4848 24.716C36.4848 25.412 36.5288 25.996 36.6168 26.468C36.7048 26.932 36.8488 27.284 37.0488 27.524C37.2568 27.756 37.5368 27.872 37.8888 27.872C38.2408 27.872 38.5168 27.756 38.7168 27.524C38.9248 27.292 39.0728 26.94 39.1608 26.468C39.2568 25.996 39.3048 25.412 39.3048 24.716C39.3048 24.012 39.2568 23.428 39.1608 22.964C39.0728 22.492 38.9248 22.14 38.7168 21.908C38.5168 21.668 38.2408 21.548 37.8888 21.548C37.5368 21.548 37.2568 21.668 37.0488 21.908C36.8488 22.14 36.7048 22.488 36.6168 22.952C36.5288 23.416 36.4848 24.004 36.4848 24.716ZM44.2079 24.656V27.092H45.8039V24.656H44.2079ZM49.0799 18.956V27.368H50.6759V18.956H49.0799ZM42.6719 28.604V29.876H50.9159V28.604H42.6719ZM42.6719 26.576V28.94H44.2679V26.576H42.6719ZM41.4719 25.136C43.4759 25.136 46.0799 25.076 48.4439 24.68L48.3479 23.54C46.0199 23.84 43.3079 23.864 41.2799 23.864L41.4719 25.136ZM46.9799 25.412V26.504H49.4279V25.412H46.9799ZM44.8559 19.34C43.2239 19.34 42.0839 20.144 42.0839 21.32C42.0839 22.508 43.2239 23.3 44.8559 23.3C46.4759 23.3 47.6159 22.508 47.6159 21.32C47.6159 20.144 46.4759 19.34 44.8559 19.34ZM44.8559 20.504C45.5879 20.504 46.1039 20.78 46.1039 21.32C46.1039 21.86 45.5879 22.136 44.8559 22.136C44.1119 22.136 43.5959 21.86 43.5959 21.32C43.5959 20.78 44.1119 20.504 44.8559 20.504ZM55.6482 23.912V25.184H63.4602V23.912H55.6482ZM54.4842 27.512V28.82H64.5402V27.512H54.4842ZM58.6962 24.488V27.932H60.2922V24.488H58.6962ZM55.6482 19.712V24.464H57.2442V20.996H63.3762V19.712H55.6482ZM70.6153 22.424V23.708H73.5433V22.424H70.6153ZM67.5913 19.808V21.416C67.5913 23.528 66.7513 25.676 64.8553 26.552L65.8513 27.836C67.9393 26.792 68.8873 24.212 68.8873 21.416V19.808H67.5913ZM67.9273 19.808V21.416C67.9273 24.188 68.8033 26.636 70.8913 27.644L71.8393 26.372C70.0033 25.556 69.1993 23.528 69.1993 21.416V19.808H67.9273ZM72.7513 18.944V30.092H74.3353V18.944H72.7513ZM80.6035 19.556V20.54C80.6035 22.052 79.8475 23.54 77.9875 24.164L78.8395 25.424C80.9515 24.692 81.9115 22.748 81.9115 20.54V19.556H80.6035ZM80.9275 19.556V20.696C80.9275 22.7 81.8755 24.428 83.8795 25.1L84.7075 23.864C82.9675 23.324 82.2235 22.028 82.2235 20.696V19.556H80.9275ZM85.3195 18.956V25.52H86.9155V18.956H85.3195ZM86.4715 21.524V22.844H88.3915V21.524H86.4715ZM83.2915 25.772C80.9755 25.772 79.5235 26.576 79.5235 27.92C79.5235 29.276 80.9755 30.068 83.2915 30.068C85.5955 30.068 87.0475 29.276 87.0475 27.92C87.0475 26.576 85.5955 25.772 83.2915 25.772ZM83.2915 27.008C84.7075 27.008 85.4635 27.308 85.4635 27.92C85.4635 28.544 84.7075 28.832 83.2915 28.832C81.8755 28.832 81.1075 28.544 81.1075 27.92C81.1075 27.308 81.8755 27.008 83.2915 27.008ZM92.9306 25.064V26.756H94.5266V25.064H92.9306ZM88.7066 24.152V25.412H98.7506V24.152H88.7066ZM89.5826 19.256V20.528H97.8626V19.256H89.5826ZM89.6666 22.196V23.468H97.7786V22.196H89.6666ZM90.9986 19.724V23.024H92.5946V19.724H90.9986ZM94.8506 19.724V23.024H96.4466V19.724H94.8506ZM89.8706 26.336V29.948H97.5506V26.336H89.8706ZM95.9906 27.572V28.688H91.4426V27.572H95.9906ZM102.09 24.14V26.636H103.674V24.14H102.09ZM107.082 18.956V27.32H108.69V18.956H107.082ZM100.686 28.604V29.876H108.93V28.604H100.686ZM100.686 26.492V28.916H102.282V26.492H100.686ZM99.3656 24.416C101.37 24.404 104.01 24.344 106.422 23.912L106.314 22.784C103.95 23.108 101.202 23.144 99.1736 23.156L99.3656 24.416ZM104.946 24.884V26.12H107.442V24.884H104.946ZM100.182 19.508V20.768H104.898V19.508H100.182ZM103.89 19.508V19.892C103.89 20.516 103.89 21.644 103.626 23.288L105.186 23.396C105.474 21.74 105.474 20.54 105.474 19.892V19.508H103.89Z" fill="#FAFAFA"/>
<path d="M14.976 40.412C14.976 40.796 14.9 41.132 14.748 41.42C14.604 41.7 14.396 41.928 14.124 42.104C13.852 42.28 13.54 42.408 13.188 42.488V42.536C13.876 42.616 14.388 42.832 14.724 43.184C15.068 43.528 15.24 43.984 15.24 44.552C15.24 45.048 15.12 45.492 14.88 45.884C14.648 46.268 14.284 46.572 13.788 46.796C13.3 47.012 12.672 47.12 11.904 47.12C11.448 47.12 11.024 47.084 10.632 47.012C10.24 46.94 9.868 46.82 9.516 46.652V45.5C9.876 45.684 10.26 45.824 10.668 45.92C11.084 46.016 11.48 46.064 11.856 46.064C12.584 46.064 13.108 45.928 13.428 45.656C13.748 45.376 13.908 44.988 13.908 44.492C13.908 44.172 13.824 43.912 13.656 43.712C13.488 43.504 13.232 43.352 12.888 43.256C12.544 43.152 12.116 43.1 11.604 43.1H10.824V42.056H11.616C12.104 42.056 12.5 41.996 12.804 41.876C13.108 41.748 13.332 41.572 13.476 41.348C13.62 41.124 13.692 40.868 13.692 40.58C13.692 40.196 13.564 39.9 13.308 39.692C13.06 39.476 12.7 39.368 12.228 39.368C11.94 39.368 11.672 39.4 11.424 39.464C11.184 39.528 10.964 39.612 10.764 39.716C10.564 39.82 10.368 39.936 10.176 40.064L9.552 39.188C9.768 39.028 10.008 38.88 10.272 38.744C10.544 38.608 10.844 38.504 11.172 38.432C11.508 38.352 11.872 38.312 12.264 38.312C13.152 38.312 13.824 38.508 14.28 38.9C14.744 39.284 14.976 39.788 14.976 40.412ZM21.6912 42.704C21.6912 43.4 21.6352 44.02 21.5232 44.564C21.4192 45.108 21.2512 45.572 21.0192 45.956C20.7952 46.332 20.4952 46.62 20.1192 46.82C19.7512 47.02 19.3072 47.12 18.7872 47.12C18.1312 47.12 17.5912 46.944 17.1672 46.592C16.7432 46.24 16.4272 45.736 16.2192 45.08C16.0112 44.416 15.9072 43.624 15.9072 42.704C15.9072 41.776 15.9992 40.984 16.1832 40.328C16.3752 39.672 16.6832 39.172 17.1072 38.828C17.5312 38.476 18.0912 38.3 18.7872 38.3C19.4432 38.3 19.9832 38.476 20.4072 38.828C20.8392 39.172 21.1592 39.672 21.3672 40.328C21.5832 40.984 21.6912 41.776 21.6912 42.704ZM17.1792 42.704C17.1792 43.448 17.2312 44.068 17.3352 44.564C17.4392 45.06 17.6072 45.432 17.8392 45.68C18.0792 45.928 18.3952 46.052 18.7872 46.052C19.1792 46.052 19.4912 45.932 19.7232 45.692C19.9632 45.444 20.1352 45.072 20.2392 44.576C20.3512 44.072 20.4072 43.448 20.4072 42.704C20.4072 41.96 20.3512 41.344 20.2392 40.856C20.1352 40.36 19.9632 39.988 19.7232 39.74C19.4912 39.492 19.1792 39.368 18.7872 39.368C18.3952 39.368 18.0792 39.492 17.8392 39.74C17.6072 39.988 17.4392 40.36 17.3352 40.856C17.2312 41.344 17.1792 41.96 17.1792 42.704ZM27.5064 38.84V39.656H30.6384V38.84H27.5064ZM27.5064 41V41.804H30.6624V41H27.5064ZM30.2544 37.088V43.508H31.2504V37.088H30.2544ZM22.8264 37.904V42.728H27.7824V37.904H22.8264ZM26.7984 38.708V41.936H23.7984V38.708H26.7984ZM27.6864 43.82C25.4424 43.82 24.0624 44.576 24.0624 45.872C24.0624 47.168 25.4424 47.912 27.6864 47.912C29.9184 47.912 31.2984 47.168 31.2984 45.872C31.2984 44.576 29.9184 43.82 27.6864 43.82ZM27.6864 44.612C29.3184 44.612 30.3144 45.08 30.3144 45.872C30.3144 46.664 29.3184 47.132 27.6864 47.132C26.0544 47.132 25.0584 46.664 25.0584 45.872C25.0584 45.08 26.0544 44.612 27.6864 44.612Z" fill="#535353"/>
<path d="M37.786 140H32.506V139.098L34.53 137.041C34.926 136.638 35.256 136.289 35.52 135.996C35.784 135.695 35.982 135.409 36.114 135.138C36.246 134.859 36.312 134.559 36.312 134.236C36.312 133.833 36.1947 133.532 35.96 133.334C35.7253 133.129 35.421 133.026 35.047 133.026C34.6877 133.026 34.365 133.096 34.079 133.235C33.793 133.367 33.496 133.554 33.188 133.796L32.561 133.015C32.7737 132.832 33.001 132.667 33.243 132.52C33.4923 132.373 33.7673 132.256 34.068 132.168C34.376 132.08 34.7133 132.036 35.08 132.036C35.5787 132.036 36.0077 132.124 36.367 132.3C36.7263 132.469 37.0013 132.711 37.192 133.026C37.39 133.341 37.489 133.712 37.489 134.137C37.489 134.452 37.4413 134.749 37.346 135.028C37.2507 135.299 37.1113 135.567 36.928 135.831C36.752 136.095 36.5357 136.363 36.279 136.634C36.0223 136.905 35.74 137.191 35.432 137.492L33.969 138.911V138.966H37.786V140ZM44.0919 136.062C44.0919 136.7 44.0406 137.268 43.9379 137.767C43.8426 138.266 43.6886 138.691 43.4759 139.043C43.2706 139.388 42.9956 139.652 42.6509 139.835C42.3136 140.018 41.9066 140.11 41.4299 140.11C40.8286 140.11 40.3336 139.949 39.9449 139.626C39.5563 139.303 39.2666 138.841 39.0759 138.24C38.8853 137.631 38.7899 136.905 38.7899 136.062C38.7899 135.211 38.8743 134.485 39.0429 133.884C39.2189 133.283 39.5013 132.824 39.8899 132.509C40.2786 132.186 40.7919 132.025 41.4299 132.025C42.0313 132.025 42.5263 132.186 42.9149 132.509C43.3109 132.824 43.6043 133.283 43.7949 133.884C43.9929 134.485 44.0919 135.211 44.0919 136.062ZM39.9559 136.062C39.9559 136.744 40.0036 137.312 40.0989 137.767C40.1943 138.222 40.3483 138.563 40.5609 138.79C40.7809 139.017 41.0706 139.131 41.4299 139.131C41.7893 139.131 42.0753 139.021 42.2879 138.801C42.5079 138.574 42.6656 138.233 42.7609 137.778C42.8636 137.316 42.9149 136.744 42.9149 136.062C42.9149 135.38 42.8636 134.815 42.7609 134.368C42.6656 133.913 42.5079 133.572 42.2879 133.345C42.0753 133.118 41.7893 133.004 41.4299 133.004C41.0706 133.004 40.7809 133.118 40.5609 133.345C40.3483 133.572 40.1943 133.913 40.0989 134.368C40.0036 134.815 39.9559 135.38 39.9559 136.062ZM50.3868 136.062C50.3868 136.7 50.3355 137.268 50.2328 137.767C50.1375 138.266 49.9835 138.691 49.7708 139.043C49.5655 139.388 49.2905 139.652 48.9458 139.835C48.6085 140.018 48.2015 140.11 47.7248 140.11C47.1235 140.11 46.6285 139.949 46.2398 139.626C45.8512 139.303 45.5615 138.841 45.3708 138.24C45.1802 137.631 45.0848 136.905 45.0848 136.062C45.0848 135.211 45.1692 134.485 45.3378 133.884C45.5138 133.283 45.7962 132.824 46.1848 132.509C46.5735 132.186 47.0868 132.025 47.7248 132.025C48.3262 132.025 48.8212 132.186 49.2098 132.509C49.6058 132.824 49.8992 133.283 50.0898 133.884C50.2878 134.485 50.3868 135.211 50.3868 136.062ZM46.2508 136.062C46.2508 136.744 46.2985 137.312 46.3938 137.767C46.4892 138.222 46.6432 138.563 46.8558 138.79C47.0758 139.017 47.3655 139.131 47.7248 139.131C48.0842 139.131 48.3702 139.021 48.5828 138.801C48.8028 138.574 48.9605 138.233 49.0558 137.778C49.1585 137.316 49.2098 136.744 49.2098 136.062C49.2098 135.38 49.1585 134.815 49.0558 134.368C48.9605 133.913 48.8028 133.572 48.5828 133.345C48.3702 133.118 48.0842 133.004 47.7248 133.004C47.3655 133.004 47.0758 133.118 46.8558 133.345C46.6432 133.572 46.4892 133.913 46.3938 134.368C46.2985 134.815 46.2508 135.38 46.2508 136.062ZM56.6818 136.062C56.6818 136.7 56.6304 137.268 56.5278 137.767C56.4324 138.266 56.2784 138.691 56.0658 139.043C55.8604 139.388 55.5854 139.652 55.2408 139.835C54.9034 140.018 54.4964 140.11 54.0198 140.11C53.4184 140.11 52.9234 139.949 52.5348 139.626C52.1461 139.303 51.8564 138.841 51.6658 138.24C51.4751 137.631 51.3798 136.905 51.3798 136.062C51.3798 135.211 51.4641 134.485 51.6328 133.884C51.8088 133.283 52.0911 132.824 52.4798 132.509C52.8684 132.186 53.3818 132.025 54.0198 132.025C54.6211 132.025 55.1161 132.186 55.5048 132.509C55.9008 132.824 56.1941 133.283 56.3848 133.884C56.5828 134.485 56.6818 135.211 56.6818 136.062ZM52.5458 136.062C52.5458 136.744 52.5934 137.312 52.6888 137.767C52.7841 138.222 52.9381 138.563 53.1508 138.79C53.3708 139.017 53.6604 139.131 54.0198 139.131C54.3791 139.131 54.6651 139.021 54.8778 138.801C55.0978 138.574 55.2554 138.233 55.3508 137.778C55.4534 137.316 55.5048 136.744 55.5048 136.062C55.5048 135.38 55.4534 134.815 55.3508 134.368C55.2554 133.913 55.0978 133.572 54.8778 133.345C54.6651 133.118 54.3791 133.004 54.0198 133.004C53.6604 133.004 53.3708 133.118 53.1508 133.345C52.9381 133.572 52.7841 133.913 52.6888 134.368C52.5934 134.815 52.5458 135.38 52.5458 136.062Z" fill="#FAFAFA"/>
<circle cx="19" cy="136.633" r="10" fill="#7000FF"/>
<path d="M19.672 132.432C20.784 132.432 21.592 132.664 22.096 133.128C22.608 133.592 22.864 134.232 22.864 135.048C22.864 135.416 22.808 135.768 22.696 136.104C22.584 136.432 22.396 136.728 22.132 136.992C21.868 137.256 21.52 137.464 21.088 137.616C20.664 137.768 20.136 137.844 19.504 137.844H18.652V141H17.116V132.432H19.672ZM19.576 133.704H18.652V136.572H19.348C19.764 136.572 20.116 136.524 20.404 136.428C20.7 136.324 20.924 136.164 21.076 135.948C21.228 135.732 21.304 135.452 21.304 135.108C21.304 134.636 21.164 134.284 20.884 134.052C20.604 133.82 20.168 133.704 19.576 133.704Z" fill="#FAFAFA"/>
<g filter="url(#filter0_d_539_104)">
<path fill-rule="evenodd" clip-rule="evenodd" d="M130 62H45V100.815H130V85.5835C130 85.5835 130 85.5835 130 85.5835C127.558 85.5835 125.578 83.6037 125.578 81.1616C125.578 78.7194 127.558 76.7396 130 76.7396C130 76.7396 130 76.7396 130 76.7396V62Z" fill="#7000FF"/>
</g>
<rect x="47.5" y="64.5" width="73.7615" height="33.9908" fill="#FAFAFA" stroke="#7000FF" stroke-width="5"/>
<path d="M70.0805 86H68.3165V79.77C68.3165 79.5647 68.3165 79.3547 68.3165 79.14C68.3259 78.9253 68.3352 78.7107 68.3445 78.496C68.3539 78.272 68.3632 78.0667 68.3725 77.88C68.2792 77.9733 68.1625 78.0853 68.0225 78.216C67.8825 78.3373 67.7379 78.4633 67.5885 78.594L66.4685 79.49L65.5865 78.398L68.6105 76.004H70.0805V86ZM79.5383 80.988C79.5383 81.8 79.4776 82.5233 79.3563 83.158C79.2349 83.7927 79.0343 84.334 78.7543 84.782C78.4836 85.2207 78.1289 85.5567 77.6903 85.79C77.2609 86.0233 76.7336 86.14 76.1083 86.14C75.3243 86.14 74.6803 85.9347 74.1763 85.524C73.6723 85.1133 73.2989 84.5253 73.0563 83.76C72.8136 82.9853 72.6923 82.0613 72.6923 80.988C72.6923 79.9147 72.8043 78.9953 73.0283 78.23C73.2523 77.4647 73.6116 76.8767 74.1063 76.466C74.6103 76.0553 75.2776 75.85 76.1083 75.85C76.8923 75.85 77.5363 76.0553 78.0403 76.466C78.5443 76.8673 78.9176 77.4553 79.1603 78.23C79.4123 78.9953 79.5383 79.9147 79.5383 80.988ZM74.4703 81.002C74.4703 81.814 74.5216 82.4953 74.6243 83.046C74.7269 83.5873 74.8949 83.998 75.1283 84.278C75.3709 84.5487 75.6976 84.684 76.1083 84.684C76.5189 84.684 76.8409 84.5487 77.0743 84.278C77.3169 84.0073 77.4896 83.5967 77.5923 83.046C77.7043 82.4953 77.7603 81.814 77.7603 81.002C77.7603 80.1807 77.7043 79.4993 77.5923 78.958C77.4896 78.4073 77.3169 77.9967 77.0743 77.726C76.8409 77.446 76.5189 77.306 76.1083 77.306C75.6976 77.306 75.3709 77.446 75.1283 77.726C74.8949 77.9967 74.7269 78.4027 74.6243 78.944C74.5216 79.4853 74.4703 80.1713 74.4703 81.002ZM87.05 80.988C87.05 81.8 86.9893 82.5233 86.868 83.158C86.7466 83.7927 86.546 84.334 86.266 84.782C85.9953 85.2207 85.6406 85.5567 85.202 85.79C84.7726 86.0233 84.2453 86.14 83.62 86.14C82.836 86.14 82.192 85.9347 81.688 85.524C81.184 85.1133 80.8106 84.5253 80.568 83.76C80.3253 82.9853 80.204 82.0613 80.204 80.988C80.204 79.9147 80.316 78.9953 80.54 78.23C80.764 77.4647 81.1233 76.8767 81.618 76.466C82.122 76.0553 82.7893 75.85 83.62 75.85C84.404 75.85 85.048 76.0553 85.552 76.466C86.056 76.8673 86.4293 77.4553 86.672 78.23C86.924 78.9953 87.05 79.9147 87.05 80.988ZM81.982 81.002C81.982 81.814 82.0333 82.4953 82.136 83.046C82.2386 83.5873 82.4066 83.998 82.64 84.278C82.8826 84.5487 83.2093 84.684 83.62 84.684C84.0306 84.684 84.3526 84.5487 84.586 84.278C84.8286 84.0073 85.0013 83.5967 85.104 83.046C85.216 82.4953 85.272 81.814 85.272 81.002C85.272 80.1807 85.216 79.4993 85.104 78.958C85.0013 78.4073 84.8286 77.9967 84.586 77.726C84.3526 77.446 84.0306 77.306 83.62 77.306C83.2093 77.306 82.8826 77.446 82.64 77.726C82.4066 77.9967 82.2386 78.4027 82.136 78.944C82.0333 79.4853 81.982 80.1713 81.982 81.002ZM94.5617 80.988C94.5617 81.8 94.501 82.5233 94.3797 83.158C94.2584 83.7927 94.0577 84.334 93.7777 84.782C93.507 85.2207 93.1524 85.5567 92.7137 85.79C92.2844 86.0233 91.757 86.14 91.1317 86.14C90.3477 86.14 89.7037 85.9347 89.1997 85.524C88.6957 85.1133 88.3224 84.5253 88.0797 83.76C87.837 82.9853 87.7157 82.0613 87.7157 80.988C87.7157 79.9147 87.8277 78.9953 88.0517 78.23C88.2757 77.4647 88.635 76.8767 89.1297 76.466C89.6337 76.0553 90.301 75.85 91.1317 75.85C91.9157 75.85 92.5597 76.0553 93.0637 76.466C93.5677 76.8673 93.941 77.4553 94.1837 78.23C94.4357 78.9953 94.5617 79.9147 94.5617 80.988ZM89.4937 81.002C89.4937 81.814 89.545 82.4953 89.6477 83.046C89.7504 83.5873 89.9184 83.998 90.1517 84.278C90.3944 84.5487 90.721 84.684 91.1317 84.684C91.5424 84.684 91.8644 84.5487 92.0977 84.278C92.3404 84.0073 92.513 83.5967 92.6157 83.046C92.7277 82.4953 92.7837 81.814 92.7837 81.002C92.7837 80.1807 92.7277 79.4993 92.6157 78.958C92.513 78.4073 92.3404 77.9967 92.0977 77.726C91.8644 77.446 91.5424 77.306 91.1317 77.306C90.721 77.306 90.3944 77.446 90.1517 77.726C89.9184 77.9967 89.7504 78.4027 89.6477 78.944C89.545 79.4853 89.4937 80.1713 89.4937 81.002ZM102.073 80.988C102.073 81.8 102.013 82.5233 101.891 83.158C101.77 83.7927 101.569 84.334 101.289 84.782C101.019 85.2207 100.664 85.5567 100.225 85.79C99.7961 86.0233 99.2687 86.14 98.6434 86.14C97.8594 86.14 97.2154 85.9347 96.7114 85.524C96.2074 85.1133 95.8341 84.5253 95.5914 83.76C95.3487 82.9853 95.2274 82.0613 95.2274 80.988C95.2274 79.9147 95.3394 78.9953 95.5634 78.23C95.7874 77.4647 96.1467 76.8767 96.6414 76.466C97.1454 76.0553 97.8127 75.85 98.6434 75.85C99.4274 75.85 100.071 76.0553 100.575 76.466C101.079 76.8673 101.453 77.4553 101.695 78.23C101.947 78.9953 102.073 79.9147 102.073 80.988ZM97.0054 81.002C97.0054 81.814 97.0567 82.4953 97.1594 83.046C97.2621 83.5873 97.4301 83.998 97.6634 84.278C97.9061 84.5487 98.2327 84.684 98.6434 84.684C99.0541 84.684 99.3761 84.5487 99.6094 84.278C99.8521 84.0073 100.025 83.5967 100.127 83.046C100.239 82.4953 100.295 81.814 100.295 81.002C100.295 80.1807 100.239 79.4993 100.127 78.958C100.025 78.4073 99.8521 77.9967 99.6094 77.726C99.3761 77.446 99.0541 77.306 98.6434 77.306C98.2327 77.306 97.9061 77.446 97.6634 77.726C97.4301 77.9967 97.2621 78.4027 97.1594 78.944C97.0567 79.4853 97.0054 80.1713 97.0054 81.002Z" fill="#7000FF"/>
<defs>
<filter id="filter0_d_539_104" x="35" y="52" width="125" height="78.8151" filterUnits="userSpaceOnUse" color-interpolation-filters="sRGB">
<feFlood flood-opacity="0" result="BackgroundImageFix"/>
<feColorMatrix in="SourceAlpha" type="matrix" values="0 0 0 0 0 0 0 0 0 0 0 0 0 0 0 0 0 0 127 0" result="hardAlpha"/>
<feOffset dx="10" dy="10"/>
<feGaussianBlur stdDeviation="10"/>
<feComposite in2="hardAlpha" operator="out"/>
<feColorMatrix type="matrix" values="0 0 0 0 0 0 0 0 0 0 0 0 0 0 0 0 0 0 0.25 0"/>
<feBlend mode="normal" in2="BackgroundImageFix" result="effect1_dropShadow_539_104"/>
<feBlend mode="normal" in="SourceGraphic" in2="effect1_dropShadow_539_104" result="shape"/>
</filter>
</defs>
</svg>
